# Blender v2.74 (sub 0) OBJ File: 'lwpltrfccon.blend'
# www.blender.org
mtllib lwpltrfccon6.mtl
o Cube.002
v 2.119983 0.126092 9.493623
v 2.606809 1.485564 9.242973
v 3.412719 0.126092 9.959797
v 2.586157 0.126092 8.200886
v 3.878894 0.126092 8.667060
v 3.878893 0.126092 9.493624
v 3.162071 1.485564 8.687713
v 2.119983 0.126092 8.667060
v 3.392067 1.485564 9.242974
v 3.412720 0.126092 8.200886
v 2.586156 0.126092 9.959797
v 3.162070 1.485564 9.472971
v 2.915088 2.845035 9.164692
v 2.915088 2.845035 8.995992
v 3.083788 2.845035 8.995992
v 3.083788 2.845035 9.164692
v 2.606809 1.485564 8.917709
v 3.392067 1.485564 8.917709
v 2.836806 1.485564 9.472971
v 2.836806 1.485564 8.687713
v 4.141790 0.126092 9.651518
v 2.428262 0.126092 7.937989
v 2.428262 0.126092 10.222693
v 1.857086 0.126092 8.509165
v 3.625738 0.465960 9.352014
v 2.727767 0.465960 8.454041
v 2.727766 0.465960 9.706642
v 2.373138 0.465960 8.808669
v 2.262973 0.126092 8.343876
v 2.262972 0.126092 9.816807
v 3.735904 0.126092 9.816808
v 3.735904 0.126092 8.343876
v 4.141791 0.126092 8.509166
v 1.857086 0.126092 9.651517
v 3.625739 0.465960 8.808670
v 2.373138 0.465960 9.352014
v 3.905340 0.126092 9.080342
v 3.300886 1.485564 8.778893
v 2.093537 0.126092 9.080341
v 3.570615 0.126092 7.937989
v 3.570614 0.126092 10.222694
v 3.271110 0.465960 8.454041
v 3.271110 0.465960 9.706642
v 3.425750 1.485564 9.080341
v 3.300886 1.485564 9.381789
v 2.999439 0.126092 8.174440
v 2.999438 0.126092 9.986243
v 2.999438 1.485564 9.506653
v 3.203033 2.505167 9.177026
v 2.902754 2.505167 8.876747
v 2.902754 2.505167 9.283937
v 2.795843 2.505167 8.983657
v 3.203033 2.505167 8.983657
v 2.795843 2.505167 9.177026
v 3.091024 2.845035 9.080341
v 3.096123 2.505167 8.876747
v 3.096123 2.505167 9.283937
v 2.907852 2.845035 9.080341
v 2.999438 2.845035 8.988755
v 2.999438 2.845035 9.171927
v 2.999438 1.485564 8.654030
v 2.573127 1.485564 9.080341
v 2.697990 1.485564 9.381789
v 2.697990 1.485564 8.778893
v 3.998997 0.126092 8.080784
v 3.998996 0.126092 10.079901
v 1.999880 0.126092 10.079900
v 1.999880 0.126092 8.080783
v 3.495603 0.465960 8.584177
v 3.495603 0.465960 9.576507
v 2.503273 0.465960 8.584176
v 2.503273 0.465960 9.576507
v 4.141790 0.126092 9.080342
v 1.857086 0.126092 9.080341
v 3.667217 0.465960 9.080341
v 2.331660 0.465960 9.080341
v 2.999439 0.126092 7.937989
v 2.999438 0.126092 10.222694
v 2.999439 0.465960 8.412563
v 2.999438 0.465960 9.748120
v 3.220499 2.505167 9.080341
v 3.195804 2.240826 9.276708
v 2.999438 2.505167 8.859282
v 2.803072 2.240826 8.883975
v 2.999438 2.505167 9.301402
v 2.803072 2.240826 9.276708
v 2.778378 2.505167 9.080341
v 3.195805 2.240826 8.883975
v 2.999438 2.845035 9.080341
v 2.157235 0.031818 9.482292
v 2.699445 1.463135 9.206656
v 3.401392 0.031818 9.922545
v 2.597488 0.031818 8.238138
v 3.841642 0.031818 8.678389
v 3.841641 0.031818 9.482292
v 3.125753 1.463135 8.780349
v 2.157235 0.031818 8.678391
v 3.299431 1.463135 9.206656
v 3.401389 0.031818 8.238138
v 2.597487 0.031818 9.922544
v 3.125752 1.463135 9.380334
v 2.964608 2.770880 9.115171
v 2.964608 2.770880 9.045511
v 3.034268 2.770880 9.045511
v 3.034268 2.770880 9.115171
v 2.699445 1.463135 8.954027
v 3.299431 1.463135 8.954027
v 2.873124 1.463135 9.380334
v 2.873124 1.463135 8.780349
v 4.141790 0.024092 9.651518
v 2.428262 0.024092 7.937989
v 2.428262 0.024092 10.222693
v 1.857086 0.024092 8.509165
v 3.539767 0.418744 9.324029
v 2.755751 0.418744 8.540012
v 2.755751 0.418744 9.620670
v 2.459110 0.418744 8.836655
v 2.285473 0.029185 8.366376
v 2.285472 0.029185 9.794307
v 3.713404 0.029185 9.794308
v 3.713404 0.029185 8.366376
v 4.141791 0.024092 8.509166
v 1.857086 0.024092 9.651517
v 3.539767 0.418744 8.836655
v 2.459110 0.418744 9.324028
v 3.861065 0.034206 9.080342
v 3.230603 1.462671 8.849176
v 2.137811 0.034206 9.080341
v 3.570615 0.024092 7.937989
v 3.570614 0.024092 10.222694
v 3.243125 0.418744 8.540013
v 3.243125 0.418744 9.620670
v 3.326165 1.463503 9.080341
v 3.230603 1.462671 9.311506
v 2.999439 0.034206 8.218715
v 2.999438 0.034206 9.941969
v 2.999438 1.463503 9.407068
v 3.114832 2.477761 9.133748
v 2.946029 2.477761 8.964948
v 2.946032 2.477761 9.195736
v 2.884044 2.477761 9.026936
v 3.114832 2.477761 9.026933
v 2.884044 2.477761 9.133751
v 3.030743 2.762755 9.080341
v 3.052844 2.477761 8.964948
v 3.052847 2.477761 9.195736
v 2.968133 2.762755 9.080341
v 2.999438 2.762755 9.049037
v 2.999438 2.762755 9.111647
v 2.999438 1.463503 8.753614
v 2.672711 1.463503 9.080341
v 2.768273 1.462671 9.311506
v 2.768273 1.462671 8.849176
v 3.998997 0.024092 8.080784
v 3.998996 0.024092 10.079901
v 1.999880 0.024092 10.079900
v 1.999880 0.024092 8.080783
v 3.433314 0.414541 8.646465
v 3.433314 0.414541 9.514217
v 2.565562 0.414541 8.646465
v 2.565562 0.414541 9.514217
v 4.141790 0.024095 9.080342
v 1.857086 0.024092 9.080341
v 3.575253 0.421841 9.080341
v 2.423624 0.421841 9.080341
v 2.999439 0.024092 7.937989
v 2.999438 0.024092 10.222694
v 2.999439 0.421841 8.504527
v 2.999438 0.421841 9.656157
v 3.122278 2.477671 9.080341
v 3.125095 2.220735 9.205998
v 2.999438 2.477671 8.957502
v 2.873781 2.220735 8.954684
v 2.999438 2.477671 9.203181
v 2.873781 2.220735 9.205998
v 2.876599 2.477671 9.080341
v 3.125095 2.220735 8.954684
v 2.999438 2.743035 9.080341
vt 0.141799 0.352823
vt 0.222179 0.357439
vt 0.222179 0.398701
vt 0.111090 0.398701
vt 0.027773 0.373783
vt 0.078942 0.327871
vt 0.940263 0.002048
vt 1.000000 0.000000
vt 0.968755 0.078236
vt 0.927515 0.077574
vt 0.876649 0.084622
vt 0.862579 0.015248
vt 0.953148 0.257130
vt 0.978560 0.258264
vt 0.993526 0.387549
vt 0.987272 0.432103
vt 0.969191 0.434428
vt 0.922770 0.260750
vt 0.051132 0.127229
vt 0.045988 0.199351
vt 0.000000 0.199351
vt 0.000000 0.099676
vt 0.027772 0.024919
vt 0.078942 0.070831
vt 0.662167 0.003453
vt 0.722355 0.000000
vt 0.691487 0.077723
vt 0.649854 0.078253
vt 0.598814 0.085932
vt 0.584316 0.017358
vt 0.393227 0.271472
vt 0.398371 0.199351
vt 0.444358 0.199351
vt 0.444359 0.299026
vt 0.416586 0.373782
vt 0.365417 0.327870
vt 0.940263 0.502048
vt 1.000000 0.500000
vt 0.968755 0.578236
vt 0.927515 0.577574
vt 0.876649 0.584622
vt 0.862579 0.515248
vt 0.302559 0.045878
vt 0.222179 0.041263
vt 0.222179 0.000000
vt 0.333269 0.000000
vt 0.416586 0.024919
vt 0.365416 0.070831
vt 0.217909 0.400749
vt 0.277645 0.398701
vt 0.246401 0.476938
vt 0.205161 0.476276
vt 0.154294 0.483323
vt 0.140225 0.413949
vt 0.141799 0.045878
vt 0.111090 0.000000
vt 0.062103 0.430728
vt 0.102741 0.495982
vt 0.059348 0.512928
vt 0.000000 0.452122
vt 0.891836 0.768927
vt 0.922770 0.760750
vt 0.969191 0.934428
vt 0.950822 0.939116
vt 0.919497 0.901793
vt 0.864915 0.780130
vt 0.302560 0.352823
vt 0.333269 0.398701
vt 0.784458 0.032026
vt 0.825096 0.097281
vt 0.781703 0.114226
vt 0.722355 0.053421
vt 0.169481 0.667628
vt 0.200416 0.659451
vt 0.246837 0.833129
vt 0.228467 0.837817
vt 0.197142 0.800494
vt 0.142560 0.678831
vt 0.393227 0.127229
vt 0.444358 0.099675
vt 0.784458 0.532026
vt 0.825096 0.597281
vt 0.781703 0.614227
vt 0.722355 0.553421
vt 0.051132 0.271472
vt 0.000000 0.299026
vt 0.506165 0.034470
vt 0.547305 0.098642
vt 0.504198 0.114960
vt 0.444359 0.055271
vt 0.675490 0.258907
vt 0.701173 0.259229
vt 0.715959 0.389834
vt 0.709511 0.435236
vt 0.691362 0.437805
vt 0.644986 0.262967
vt 0.280450 0.430550
vt 0.277645 0.415992
vt 0.295393 0.414625
vt 0.296915 0.430550
vt 1.000000 0.493882
vt 0.984160 0.496451
vt 0.690515 0.503393
vt 0.652233 0.452990
vt 0.641836 0.404571
vt 0.673016 0.442493
vt 0.706476 0.499788
vt 1.000000 0.993882
vt 0.984160 0.996451
vt 0.987272 0.932103
vt 0.968200 0.500000
vt 0.929785 0.450226
vt 0.919497 0.401793
vt 0.950822 0.439116
vt 0.313141 0.428033
vt 0.313141 0.413259
vt 0.968200 1.000000
vt 0.929785 0.950226
vt 0.310336 0.398701
vt 0.293870 0.398701
vt 0.277645 0.892583
vt 0.261805 0.895153
vt 0.264917 0.830804
vt 0.245845 0.898701
vt 0.277645 0.401218
vt 0.722355 0.497062
vt 0.207430 0.848927
vt 0.891836 0.268927
vt 0.864915 0.280130
vt 0.230793 0.655831
vt 0.256205 0.656965
vt 0.271172 0.786250
vt 0.614100 0.271113
vt 0.587385 0.281853
vt 0.953148 0.757130
vt 0.978560 0.758264
vt 0.993527 0.887549
vn -0.365200 0.924300 0.111100
vn -0.434100 0.900800 0.000000
vn -0.707100 0.707100 0.000000
vn -0.730300 0.672700 0.118500
vn -0.555400 0.618900 0.555400
vn -0.220600 0.950100 0.220600
vn -0.610700 0.504100 0.610700
vn -0.842900 0.462900 0.274400
vn -0.901600 0.432500 0.000000
vn -0.908200 0.219900 0.356100
vn -0.689000 0.224400 0.689000
vn -0.693300 0.196900 0.693200
vn -0.864700 0.268700 0.424300
vn -0.963000 0.269600 0.000000
vn -0.976300 0.216300 0.000000
vn 0.111100 0.924300 0.365200
vn 0.000000 0.900800 0.434100
vn 0.000000 0.707100 0.707100
vn 0.118500 0.672700 0.730300
vn 0.555400 0.618900 0.555400
vn 0.220600 0.950100 0.220600
vn 0.610700 0.504100 0.610700
vn 0.274400 0.462900 0.842900
vn 0.000000 0.432500 0.901600
vn -0.111100 0.924300 -0.365200
vn 0.000000 0.900800 -0.434100
vn 0.000000 0.707100 -0.707100
vn -0.118500 0.672700 -0.730300
vn -0.555400 0.618900 -0.555400
vn -0.220600 0.950100 -0.220600
vn -0.610700 0.504100 -0.610700
vn -0.274400 0.462900 -0.842900
vn 0.000000 0.432500 -0.901600
vn 0.365200 0.924300 -0.111100
vn 0.434100 0.900800 0.000000
vn 0.707100 0.707100 0.000000
vn 0.730300 0.672700 -0.118500
vn 0.555400 0.618900 -0.555400
vn 0.220600 0.950100 -0.220600
vn 0.610700 0.504100 -0.610700
vn 0.842900 0.462900 -0.274400
vn 0.901600 0.432500 0.000000
vn 0.365200 0.924300 0.111100
vn 0.730300 0.672700 0.118500
vn 0.842900 0.462900 0.274400
vn 0.356100 0.219900 -0.908200
vn 0.000000 0.216300 -0.976300
vn 0.000000 0.269600 -0.963000
vn 0.424300 0.268700 -0.864700
vn 0.693200 0.196900 -0.693200
vn 0.689000 0.224400 -0.689000
vn -0.365200 0.924300 -0.111100
vn -0.730300 0.672700 -0.118500
vn -0.842900 0.462900 -0.274400
vn 0.908200 0.219900 0.356100
vn 0.976300 0.216300 0.000000
vn 0.963000 0.269600 0.000000
vn 0.864700 0.268700 0.424300
vn 0.693200 0.196900 0.693200
vn 0.689000 0.224400 0.689000
vn 0.111100 0.924300 -0.365200
vn 0.118500 0.672700 -0.730300
vn 0.274400 0.462900 -0.842900
vn -0.111100 0.924300 0.365200
vn -0.118500 0.672700 0.730300
vn -0.274400 0.462900 0.842900
vn 0.356100 0.219900 0.908200
vn 0.424300 0.268700 0.864700
vn 0.000000 0.269600 0.963000
vn 0.000000 0.216300 0.976300
vn -0.485500 0.727000 0.485500
vn 0.000000 0.806700 0.591000
vn 0.000000 1.000000 0.000000
vn -0.591000 0.806700 0.000000
vn -0.424300 0.268700 0.864700
vn -0.485500 0.727000 -0.485500
vn 0.000000 0.806700 -0.591000
vn -0.424300 0.268700 -0.864700
vn -0.693200 0.197000 -0.693200
vn -0.864700 0.268700 -0.424300
vn 0.485500 0.727000 -0.485500
vn 0.864700 0.268700 -0.424300
vn 0.591000 0.806700 0.000000
vn 0.485500 0.727000 0.485500
vn -0.908200 0.219900 -0.356100
vn -0.689000 0.224400 -0.689000
vn 0.908200 0.219900 -0.356100
vn -0.356100 0.219900 0.908200
vn -0.356100 0.219900 -0.908200
vn -0.724200 -0.679800 0.115200
vn -0.696500 -0.717600 0.000000
vn 0.442600 -0.896700 0.000000
vn 0.372800 -0.921500 -0.108500
vn 0.218800 -0.950900 -0.218800
vn -0.552500 -0.624000 0.552500
vn 0.839800 -0.471900 -0.268100
vn 0.605500 -0.516400 -0.605500
vn 0.897000 -0.442000 0.000000
vn 0.879800 -0.244300 -0.407600
vn 0.693700 -0.194000 -0.693700
vn 0.688700 -0.226700 -0.688700
vn 0.909500 -0.221000 -0.352200
vn 0.976300 -0.216500 0.000000
vn 0.970800 -0.239700 0.000000
vn 0.115200 -0.679800 0.724200
vn 0.000000 -0.717600 0.696500
vn 0.000000 -0.896700 -0.442600
vn -0.108500 -0.921500 -0.372800
vn -0.218800 -0.950900 -0.218800
vn 0.552500 -0.624000 0.552500
vn -0.268100 -0.471900 -0.839800
vn -0.605500 -0.516400 -0.605500
vn 0.000000 -0.442000 -0.897000
vn -0.115200 -0.679800 -0.724200
vn 0.000000 -0.717600 -0.696500
vn 0.000000 -0.896700 0.442600
vn 0.108500 -0.921500 0.372800
vn 0.218800 -0.950900 0.218800
vn -0.552500 -0.624000 -0.552500
vn 0.268100 -0.471900 0.839800
vn 0.605500 -0.516400 0.605500
vn 0.000000 -0.442000 0.897000
vn 0.724200 -0.679800 -0.115200
vn 0.696500 -0.717600 0.000000
vn -0.442600 -0.896700 0.000000
vn -0.372800 -0.921500 0.108500
vn -0.218800 -0.950900 0.218800
vn 0.552500 -0.624000 -0.552500
vn -0.839800 -0.471900 0.268100
vn -0.605500 -0.516400 0.605500
vn -0.897000 -0.442000 0.000000
vn 0.724200 -0.679800 0.115200
vn -0.372800 -0.921500 -0.108500
vn -0.839800 -0.471900 -0.268100
vn -0.407600 -0.244300 0.879800
vn 0.000000 -0.239700 0.970800
vn 0.000000 -0.216500 0.976300
vn -0.352200 -0.221000 0.909500
vn -0.688700 -0.226700 0.688700
vn -0.693700 -0.194000 0.693700
vn -0.724200 -0.679800 -0.115200
vn 0.372800 -0.921500 0.108500
vn 0.839800 -0.471900 0.268100
vn -0.879800 -0.244300 -0.407600
vn -0.970800 -0.239700 0.000000
vn -0.976300 -0.216500 0.000000
vn -0.909500 -0.221000 -0.352200
vn -0.688700 -0.226700 -0.688700
vn -0.693700 -0.194000 -0.693700
vn 0.115200 -0.679800 -0.724200
vn -0.108500 -0.921500 0.372800
vn -0.268100 -0.471900 0.839800
vn -0.115200 -0.679800 0.724200
vn 0.108500 -0.921500 -0.372800
vn 0.268100 -0.471900 -0.839800
vn -0.407600 -0.244300 -0.879800
vn -0.352200 -0.221000 -0.909500
vn 0.000000 -0.216500 -0.976300
vn 0.000000 -0.239700 -0.970800
vn 0.461600 -0.887100 0.000000
vn 0.000000 -1.000000 0.000000
vn 0.000000 -0.887100 -0.461600
vn 0.437500 -0.785500 -0.437500
vn 0.407600 -0.244300 -0.879800
vn 0.407600 -0.244300 0.879800
vn 0.000000 -0.887100 0.461600
vn 0.437500 -0.785500 0.437500
vn 0.879800 -0.244300 0.407600
vn 0.693700 -0.194000 0.693700
vn -0.879800 -0.244300 0.407600
vn -0.437600 -0.785500 0.437500
vn -0.461600 -0.887100 0.000000
vn -0.437500 -0.785500 -0.437500
vn 0.909500 -0.221000 0.352200
vn 0.688700 -0.226700 0.688700
vn -0.909500 -0.221000 0.352200
vn 0.352200 -0.221000 -0.909500
vn 0.352200 -0.221000 0.909500
usemtl orange
s 1
f 1/1/1 39/2/2 74/3/3 34/4/4
f 1/1/1 34/4/4 67/5/5 30/6/6
f 1/7/1 30/8/6 72/9/7 36/10/8
f 1/7/1 36/10/8 76/11/9 39/12/2
f 2/13/10 63/14/11 86/15/12 54/16/13
f 2/13/10 54/16/13 87/17/14 62/18/15
f 3/19/16 47/20/17 78/21/18 41/22/19
f 3/19/16 41/22/19 66/23/20 31/24/21
f 3/25/16 31/26/21 70/27/22 43/28/23
f 3/25/16 43/28/23 80/29/24 47/30/17
f 4/31/25 46/32/26 77/33/27 22/34/28
f 4/31/25 22/34/28 68/35/29 29/36/30
f 4/37/25 29/38/30 71/39/31 26/40/32
f 4/37/25 26/40/32 79/41/33 46/42/26
f 5/43/34 37/44/35 73/45/36 33/46/37
f 5/43/34 33/46/37 65/47/38 32/48/39
f 5/49/34 32/50/39 69/51/40 35/52/41
f 5/49/34 35/52/41 75/53/42 37/54/35
f 6/55/43 31/24/21 66/23/20 21/56/44
f 6/55/43 21/56/44 73/45/36 37/44/35
f 6/57/43 37/54/35 75/53/42 25/58/45
f 6/57/43 25/58/45 70/59/22 31/60/21
f 7/61/46 61/62/47 83/63/48 56/64/49
f 7/61/46 56/64/49 88/65/50 38/66/51
f 8/67/52 29/36/30 68/35/29 24/68/53
f 8/67/52 24/68/53 74/3/3 39/2/2
f 8/69/52 39/12/2 76/11/9 28/70/54
f 8/69/52 28/70/54 71/71/31 29/72/30
f 9/73/55 44/74/56 81/75/57 49/76/58
f 9/73/55 49/76/58 82/77/59 45/78/60
f 10/79/61 32/48/39 65/47/38 40/80/62
f 10/79/61 40/80/62 77/33/27 46/32/26
f 10/81/61 46/42/26 79/41/33 42/82/63
f 10/81/61 42/82/63 69/83/40 32/84/39
f 11/85/64 30/6/6 67/5/5 23/86/65
f 11/85/64 23/86/65 78/21/18 47/20/17
f 11/87/64 47/30/17 80/29/24 27/88/66
f 11/87/64 27/88/66 72/89/7 30/90/6
f 12/91/67 45/92/60 82/93/59 57/94/68
f 12/91/67 57/94/68 85/95/69 48/96/70
f 13/97/71 60/98/72 89/99/73 58/100/74
f 13/101/71 58/102/74 87/17/14 54/16/13
f 13/103/71 54/104/13 86/105/12 51/106/75
f 13/103/71 51/106/75 85/95/69 60/107/72
f 14/108/76 59/109/77 83/63/48 50/110/78
f 14/111/76 50/112/78 84/113/79 52/114/80
f 14/111/76 52/114/80 87/17/14 58/102/74
f 14/115/76 58/100/74 89/99/73 59/116/77
f 15/117/81 53/118/82 88/65/50 56/64/49
f 15/117/81 56/64/49 83/63/48 59/109/77
f 15/119/81 59/116/77 89/99/73 55/120/83
f 15/121/81 55/122/83 81/75/57 53/123/82
f 16/124/84 49/76/58 81/75/57 55/122/83
f 16/125/84 55/120/83 89/99/73 60/98/72
f 16/126/84 60/107/72 85/95/69 57/94/68
f 16/124/84 57/127/68 82/77/59 49/76/58
f 17/128/85 62/18/15 87/17/14 52/114/80
f 17/128/85 52/114/80 84/113/79 64/129/86
f 18/130/87 38/131/51 88/132/50 53/123/82
f 18/130/87 53/123/82 81/75/57 44/74/56
f 19/133/88 48/96/70 85/95/69 51/106/75
f 19/133/88 51/106/75 86/105/12 63/134/11
f 20/135/89 64/136/86 84/137/79 50/110/78
f 20/135/89 50/110/78 83/63/48 61/62/47
f 123/4/90 163/3/91 128/2/92 90/1/93
f 119/6/94 156/5/95 123/4/90 90/1/93
f 125/10/96 161/9/97 119/8/94 90/7/93
f 128/12/92 165/11/98 125/10/96 90/7/93
f 143/16/99 175/15/100 152/14/101 91/13/102
f 151/18/103 176/17/104 143/16/99 91/13/102
f 130/22/105 167/21/106 136/20/107 92/19/108
f 120/24/109 155/23/110 130/22/105 92/19/108
f 132/28/111 159/27/112 120/26/109 92/25/108
f 136/30/107 169/29/113 132/28/111 92/25/108
f 111/34/114 166/33/115 135/32/116 93/31/117
f 118/36/118 157/35/119 111/34/114 93/31/117
f 115/40/120 160/39/121 118/38/118 93/37/117
f 135/42/116 168/41/122 115/40/120 93/37/117
f 122/46/123 162/45/124 126/44/125 94/43/126
f 121/48/127 154/47/128 122/46/123 94/43/126
f 124/52/129 158/51/130 121/50/127 94/49/126
f 126/54/125 164/53/131 124/52/129 94/49/126
f 110/56/132 155/23/110 120/24/109 95/55/133
f 126/44/125 162/45/124 110/56/132 95/55/133
f 114/58/134 164/53/131 126/54/125 95/57/133
f 120/60/109 159/59/112 114/58/134 95/57/133
f 145/64/135 172/63/136 150/62/137 96/61/138
f 127/66/139 177/65/140 145/64/135 96/61/138
f 113/68/141 157/35/119 118/36/118 97/67/142
f 128/2/92 163/3/91 113/68/141 97/67/142
f 117/70/143 165/11/98 128/12/92 97/69/142
f 118/72/118 160/71/121 117/70/143 97/69/142
f 138/76/144 170/75/145 133/74/146 98/73/147
f 134/78/148 171/77/149 138/76/144 98/73/147
f 129/80/150 154/47/128 121/48/127 99/79/151
f 135/32/116 166/33/115 129/80/150 99/79/151
f 131/82/152 168/41/122 135/42/116 99/81/151
f 121/84/127 158/83/130 131/82/152 99/81/151
f 112/86/153 156/5/95 119/6/94 100/85/154
f 136/20/107 167/21/106 112/86/153 100/85/154
f 116/88/155 169/29/113 136/30/107 100/87/154
f 119/90/94 161/89/97 116/88/155 100/87/154
f 146/94/156 171/93/149 134/92/148 101/91/157
f 137/96/158 174/95/159 146/94/156 101/91/157
f 147/100/160 178/99/161 149/98/162 102/97/163
f 143/16/99 176/17/104 147/102/160 102/101/163
f 140/106/164 175/105/100 143/104/99 102/103/163
f 149/107/162 174/95/159 140/106/164 102/103/163
f 139/110/165 172/63/136 148/109/166 103/108/167
f 141/114/168 173/113/169 139/112/165 103/111/167
f 147/102/160 176/17/104 141/114/168 103/111/167
f 148/116/166 178/99/161 147/100/160 103/115/167
f 145/64/135 177/65/140 142/118/170 104/117/171
f 148/109/166 172/63/136 145/64/135 104/117/171
f 144/120/172 178/99/161 148/116/166 104/119/171
f 142/123/170 170/75/145 144/122/172 104/121/171
f 144/122/172 170/75/145 138/76/144 105/124/173
f 149/98/162 178/99/161 144/120/172 105/125/173
f 146/94/156 174/95/159 149/107/162 105/126/173
f 138/76/144 171/77/149 146/127/156 105/124/173
f 141/114/168 176/17/104 151/18/103 106/128/174
f 153/129/175 173/113/169 141/114/168 106/128/174
f 142/123/170 177/132/140 127/131/139 107/130/176
f 133/74/146 170/75/145 142/123/170 107/130/176
f 140/106/164 174/95/159 137/96/158 108/133/177
f 152/134/101 175/105/100 140/106/164 108/133/177
f 139/110/165 173/137/169 153/136/175 109/135/178
f 150/62/137 172/63/136 139/110/165 109/135/178
f 73/45/36 21/56/44 110/56/132 162/45/124
f 21/56/44 66/23/20 155/23/110 110/56/132
f 22/34/28 77/33/27 166/33/115 111/34/114
f 68/35/29 22/34/28 111/34/114 157/35/119
f 78/21/18 23/86/65 112/86/153 167/21/106
f 23/86/65 67/5/5 156/5/95 112/86/153
f 74/3/3 24/68/53 113/68/141 163/3/91
f 24/68/53 68/35/29 157/35/119 113/68/141
f 65/47/38 33/46/37 122/46/123 154/47/128
f 33/46/37 73/45/36 162/45/124 122/46/123
f 67/5/5 34/4/4 123/4/90 156/5/95
f 34/4/4 74/3/3 163/3/91 123/4/90
f 40/80/62 65/47/38 154/47/128 129/80/150
f 77/33/27 40/80/62 129/80/150 166/33/115
f 66/23/20 41/22/19 130/22/105 155/23/110
f 41/22/19 78/21/18 167/21/106 130/22/105
usemtl white
f 2/13/10 62/18/15 76/11/9 36/10/8
f 2/13/10 36/10/8 72/9/7 63/14/11
f 7/61/46 38/66/51 69/83/40 42/82/63
f 7/61/46 42/82/63 79/41/33 61/62/47
f 9/73/55 45/78/60 70/59/22 25/58/45
f 9/73/55 25/58/45 75/53/42 44/74/56
f 12/91/67 48/96/70 80/29/24 43/28/23
f 12/91/67 43/28/23 70/27/22 45/92/60
f 17/128/85 64/129/86 71/71/31 28/70/54
f 17/128/85 28/70/54 76/11/9 62/18/15
f 18/130/87 44/74/56 75/53/42 35/52/41
f 18/130/87 35/52/41 69/51/40 38/131/51
f 19/133/88 63/134/11 72/89/7 27/88/66
f 19/133/88 27/88/66 80/29/24 48/96/70
f 20/135/89 61/62/47 79/41/33 26/40/32
f 20/135/89 26/40/32 71/39/31 64/136/86
f 125/10/96 165/11/98 151/18/103 91/13/102
f 152/14/101 161/9/97 125/10/96 91/13/102
f 131/82/152 158/83/130 127/66/139 96/61/138
f 150/62/137 168/41/122 131/82/152 96/61/138
f 114/58/134 159/59/112 134/78/148 98/73/147
f 133/74/146 164/53/131 114/58/134 98/73/147
f 132/28/111 169/29/113 137/96/158 101/91/157
f 134/92/148 159/27/112 132/28/111 101/91/157
f 117/70/143 160/71/121 153/129/175 106/128/174
f 151/18/103 165/11/98 117/70/143 106/128/174
f 124/52/129 164/53/131 133/74/146 107/130/176
f 127/131/139 158/51/130 124/52/129 107/130/176
f 116/88/155 161/89/97 152/134/101 108/133/177
f 137/96/158 169/29/113 116/88/155 108/133/177
f 115/40/120 168/41/122 150/62/137 109/135/178
f 153/136/175 160/39/121 115/40/120 109/135/178
